<svg width="232" height="187" viewBox="0 0 232 187" fill="none" xmlns="http://www.w3.org/2000/svg">
<path d="M35 129L58 72" stroke="black"/>
<path d="M95 157L125 26" stroke="black"/>
<path d="M4 47.5L34 116L56 59.5L92 143L121.5 12L141 59.5" stroke="black" stroke-width="7"/>
<path d="M144.91 111V71.7891H148.438V107.637H163.449V111H144.91ZM169.055 111V71.7891H172.582V111H169.055ZM189.973 102.387L190.082 103.836L190.191 102.387L198.887 71.7891H202.523L190.984 111H189.125L177.641 71.7891H181.305L189.973 102.387ZM207.555 111V71.7891H229.621V75.1523H211.082V89.7266H226.094V93.0898H211.082V107.637H229.621V111H207.555Z" fill="black"/>
<path d="M129.73 148.69C127.936 148.69 126.51 148.092 125.452 146.896C124.44 145.7 123.934 144.021 123.934 141.859V100.114C123.934 99.332 124.141 98.734 124.555 98.32C125.015 97.906 125.613 97.699 126.349 97.699C127.269 97.699 128.051 98.021 128.695 98.665C128.419 99.585 128.235 101.011 128.143 102.943C128.051 104.875 128.005 107.934 128.005 112.12V141.721C128.005 144.159 128.902 145.378 130.696 145.378C131.294 145.378 131.846 145.24 132.352 144.964C132.858 144.688 133.226 144.297 133.456 143.791C133.916 144.297 134.146 144.918 134.146 145.654C134.146 146.574 133.709 147.31 132.835 147.862C131.961 148.414 130.926 148.69 129.73 148.69Z" fill="black"/>
<path fill-rule="evenodd" clip-rule="evenodd" d="M133.889 80.811C129.808 76.7298 123.192 76.7298 119.111 80.811C118.932 80.9841 118.692 81.0798 118.443 81.0776C118.194 81.0755 117.955 80.9756 117.779 80.7994C117.603 80.6233 117.503 80.385 117.501 80.1359C117.499 79.8868 117.595 79.6469 117.768 79.4677C122.59 74.6446 130.41 74.6446 135.232 79.4677C135.406 79.6469 135.501 79.8868 135.499 80.1359C135.497 80.385 135.397 80.6233 135.221 80.7994C135.045 80.9756 134.806 81.0755 134.557 81.0776C134.308 81.0798 134.068 80.9841 133.889 80.811ZM131.203 83.4976C130.585 82.88 129.852 82.3901 129.045 82.0559C128.238 81.7217 127.373 81.5496 126.5 81.5496C125.627 81.5496 124.762 81.7217 123.955 82.0559C123.148 82.3901 122.415 82.88 121.798 83.4976C121.618 83.6707 121.378 83.7664 121.129 83.7642C120.88 83.7621 120.642 83.6622 120.466 83.486C120.29 83.3099 120.19 83.0716 120.188 82.8225C120.185 82.5734 120.281 82.3335 120.454 82.1543C121.248 81.3604 122.191 80.7306 123.228 80.3009C124.265 79.8712 125.377 79.65 126.5 79.65C127.623 79.65 128.735 79.8712 129.772 80.3009C130.809 80.7306 131.752 81.3604 132.546 82.1543C132.719 82.3335 132.815 82.5734 132.812 82.8225C132.81 83.0716 132.71 83.3099 132.534 83.486C132.358 83.6622 132.12 83.7621 131.871 83.7642C131.622 83.7664 131.382 83.6707 131.203 83.4976ZM128.514 86.1861C127.98 85.6518 127.255 85.3517 126.499 85.3517C125.743 85.3517 125.019 85.6518 124.484 86.1861C124.306 86.3644 124.064 86.4645 123.812 86.4645C123.56 86.4645 123.318 86.3644 123.14 86.1861C122.962 86.0078 122.861 85.7661 122.861 85.514C122.861 85.2619 122.962 85.0201 123.14 84.8419C123.581 84.4006 124.105 84.0506 124.681 83.8119C125.257 83.5731 125.875 83.4502 126.499 83.4502C127.123 83.4502 127.741 83.5731 128.317 83.8119C128.894 84.0506 129.417 84.4006 129.858 84.8419C130.037 85.0201 130.137 85.2619 130.137 85.514C130.137 85.7661 130.037 86.0078 129.858 86.1861C129.68 86.3644 129.438 86.4645 129.186 86.4645C128.934 86.4645 128.692 86.3644 128.514 86.1861ZM125.55 88.2001C125.55 87.9481 125.65 87.7065 125.828 87.5284C126.006 87.3502 126.248 87.2501 126.5 87.2501H126.51C126.762 87.2501 127.003 87.3502 127.181 87.5284C127.359 87.7065 127.46 87.9481 127.46 88.2001C127.46 88.4521 127.359 88.6937 127.181 88.8719C127.003 89.05 126.762 89.1501 126.51 89.1501H126.5C126.248 89.1501 126.006 89.05 125.828 88.8719C125.65 88.6937 125.55 88.4521 125.55 88.2001Z" fill="black"/>
</svg>
