<svg width="232" height="187" viewBox="0 0 232 187" fill="none" xmlns="http://www.w3.org/2000/svg">
<path d="M35 129L58 72" stroke="#16697A"/>
<path d="M95 157L125 26" stroke="#16697A"/>
<path d="M4 47.5L34 116L56 59.5L92 143L121.5 12L141 59.5" stroke="#16697A" stroke-width="7"/>
<path d="M144.91 111V71.7891H148.438V107.637H163.449V111H144.91ZM169.055 111V71.7891H172.582V111H169.055ZM189.973 102.387L190.082 103.836L190.191 102.387L198.887 71.7891H202.523L190.984 111H189.125L177.641 71.7891H181.305L189.973 102.387ZM207.555 111V71.7891H229.621V75.1523H211.082V89.7266H226.094V93.0898H211.082V107.637H229.621V111H207.555Z" fill="#16697A"/>
<path d="M129.73 148.69C127.936 148.69 126.51 148.092 125.452 146.896C124.44 145.7 123.934 144.021 123.934 141.859V100.114C123.934 99.332 124.141 98.734 124.555 98.32C125.015 97.906 125.613 97.699 126.349 97.699C127.269 97.699 128.051 98.021 128.695 98.665C128.419 99.585 128.235 101.011 128.143 102.943C128.051 104.875 128.005 107.934 128.005 112.12V141.721C128.005 144.159 128.902 145.378 130.696 145.378C131.294 145.378 131.846 145.24 132.352 144.964C132.858 144.688 133.226 144.297 133.456 143.791C133.916 144.297 134.146 144.918 134.146 145.654C134.146 146.574 133.709 147.31 132.835 147.862C131.961 148.414 130.926 148.69 129.73 148.69Z" fill="#16697A"/>
<path fill-rule="evenodd" clip-rule="evenodd" d="M133.889 80.8109C129.808 76.7297 123.192 76.7297 119.111 80.8109C118.932 80.9839 118.692 81.0797 118.443 81.0775C118.194 81.0754 117.955 80.9754 117.779 80.7993C117.603 80.6232 117.503 80.3849 117.501 80.1358C117.499 79.8867 117.595 79.6468 117.768 79.4676C122.59 74.6444 130.41 74.6444 135.232 79.4676C135.406 79.6468 135.501 79.8867 135.499 80.1358C135.497 80.3849 135.397 80.6232 135.221 80.7993C135.045 80.9754 134.806 81.0754 134.557 81.0775C134.308 81.0797 134.068 80.9839 133.889 80.8109ZM131.203 83.4975C130.585 82.8799 129.852 82.39 129.045 82.0558C128.238 81.7215 127.373 81.5495 126.5 81.5495C125.627 81.5495 124.762 81.7215 123.955 82.0558C123.148 82.39 122.415 82.8799 121.798 83.4975C121.618 83.6705 121.378 83.7663 121.129 83.7641C120.88 83.762 120.642 83.662 120.466 83.4859C120.29 83.3098 120.19 83.0715 120.188 82.8224C120.185 82.5733 120.281 82.3334 120.454 82.1542C121.248 81.3602 122.191 80.7304 123.228 80.3007C124.265 79.8711 125.377 79.6499 126.5 79.6499C127.623 79.6499 128.735 79.8711 129.772 80.3007C130.809 80.7304 131.752 81.3602 132.546 82.1542C132.719 82.3334 132.815 82.5733 132.812 82.8224C132.81 83.0715 132.71 83.3098 132.534 83.4859C132.358 83.662 132.12 83.762 131.871 83.7641C131.622 83.7663 131.382 83.6705 131.203 83.4975V83.4975ZM128.514 86.186C127.98 85.6517 127.255 85.3515 126.499 85.3515C125.743 85.3515 125.019 85.6517 124.484 86.186C124.306 86.3642 124.064 86.4644 123.812 86.4644C123.56 86.4644 123.318 86.3642 123.14 86.186C122.962 86.0077 122.861 85.766 122.861 85.5139C122.861 85.2618 122.962 85.02 123.14 84.8417C123.581 84.4005 124.105 84.0505 124.681 83.8117C125.257 83.573 125.875 83.45 126.499 83.45C127.123 83.45 127.741 83.573 128.317 83.8117C128.894 84.0505 129.417 84.4005 129.858 84.8417C130.037 85.02 130.137 85.2618 130.137 85.5139C130.137 85.766 130.037 86.0077 129.858 86.186C129.68 86.3642 129.438 86.4644 129.186 86.4644C128.934 86.4644 128.692 86.3642 128.514 86.186V86.186ZM125.55 88.2C125.55 87.948 125.65 87.7064 125.828 87.5282C126.006 87.3501 126.248 87.25 126.5 87.25H126.51C126.762 87.25 127.003 87.3501 127.181 87.5282C127.359 87.7064 127.46 87.948 127.46 88.2C127.46 88.4519 127.359 88.6936 127.181 88.8717C127.003 89.0499 126.762 89.15 126.51 89.15H126.5C126.248 89.15 126.006 89.0499 125.828 88.8717C125.65 88.6936 125.55 88.4519 125.55 88.2Z" fill="#16697A"/>
</svg>
