<svg width="175" height="109" viewBox="0 0 175 109" fill="none" xmlns="http://www.w3.org/2000/svg">
<path d="M26 80L40 46" stroke="#16697A"/>
<path d="M64 101L84 21" stroke="#16697A"/>
<path d="M4 31.0534L23.0511 69.7481L37.0219 37.8321L59.8832 85L78.6168 11L91 37.8321" stroke="#16697A" stroke-width="7"/>
<path d="M98.4214 71V36.6904H101.508V68.0571H114.643V71H98.4214ZM119.548 71V36.6904H122.634V71H119.548ZM137.851 63.4634L137.947 64.7314L138.042 63.4634L145.651 36.6904H148.833L138.736 71H137.109L127.061 36.6904H130.267L137.851 63.4634ZM153.235 71V36.6904H172.543V39.6333H156.322V52.3857H169.457V55.3286H156.322V68.0571H172.543V71H153.235Z" fill="#16697A"/>
<path d="M88.37 107.61C86.784 107.61 85.5233 107.081 84.588 106.024C83.6933 104.967 83.246 103.482 83.246 101.571V64.666C83.246 63.9747 83.429 63.446 83.795 63.08C84.2017 62.714 84.7303 62.531 85.381 62.531C86.1943 62.531 86.8857 62.8157 87.455 63.385C87.211 64.1983 87.0483 65.459 86.967 67.167C86.8857 68.875 86.845 71.5793 86.845 75.28V101.449C86.845 103.604 87.638 104.682 89.224 104.682C89.7527 104.682 90.2407 104.56 90.688 104.316C91.1353 104.072 91.4607 103.726 91.664 103.279C92.0707 103.726 92.274 104.275 92.274 104.926C92.274 105.739 91.8877 106.39 91.115 106.878C90.3423 107.366 89.4273 107.61 88.37 107.61Z" fill="#16697A"/>
<g clip-path="url(#clip0)">
<path fill-rule="evenodd" clip-rule="evenodd" d="M91.0372 51.5795C87.8868 48.6643 82.7799 48.6643 79.6295 51.5795C79.4912 51.7031 79.306 51.7715 79.1137 51.7699C78.9214 51.7684 78.7375 51.697 78.6015 51.5712C78.4655 51.4454 78.3884 51.2752 78.3867 51.0973C78.3851 50.9194 78.459 50.7479 78.5926 50.62C82.315 47.1749 88.3518 47.1749 92.0742 50.62C92.2078 50.7479 92.2817 50.9194 92.28 51.0973C92.2783 51.2752 92.2012 51.4454 92.0652 51.5712C91.9293 51.697 91.7454 51.7684 91.5531 51.7699C91.3608 51.7715 91.1756 51.7031 91.0372 51.5795ZM88.9634 53.4985C88.4867 53.0573 87.9208 52.7074 87.2979 52.4687C86.6751 52.2299 86.0075 52.107 85.3334 52.107C84.6592 52.107 83.9917 52.2299 83.3688 52.4687C82.746 52.7074 82.1801 53.0573 81.7034 53.4985C81.5651 53.6221 81.3798 53.6905 81.1875 53.6889C80.9953 53.6874 80.8113 53.616 80.6754 53.4902C80.5394 53.3644 80.4623 53.1942 80.4606 53.0163C80.4589 52.8384 80.5329 52.6669 80.6664 52.539C81.2793 51.9719 82.0069 51.522 82.8076 51.2151C83.6084 50.9082 84.4666 50.7502 85.3334 50.7502C86.2001 50.7502 87.0584 50.9082 87.8591 51.2151C88.6599 51.522 89.3874 51.9719 90.0003 52.539C90.1339 52.6669 90.2078 52.8384 90.2061 53.0163C90.2045 53.1942 90.1273 53.3644 89.9914 53.4902C89.8554 53.616 89.6715 53.6874 89.4792 53.6889C89.2869 53.6905 89.1017 53.6221 88.9634 53.4985ZM86.888 55.4188C86.4755 55.0372 85.916 54.8228 85.3326 54.8228C84.7493 54.8228 84.1898 55.0372 83.7772 55.4188C83.6396 55.5461 83.453 55.6177 83.2584 55.6177C83.0638 55.6177 82.8772 55.5461 82.7396 55.4188C82.602 55.2915 82.5247 55.1188 82.5247 54.9387C82.5247 54.7587 82.602 54.586 82.7396 54.4586C83.0801 54.1435 83.4843 53.8935 83.9292 53.7229C84.3742 53.5524 84.851 53.4646 85.3326 53.4646C85.8142 53.4646 86.2911 53.5524 86.736 53.7229C87.181 53.8935 87.5852 54.1435 87.9257 54.4586C88.0633 54.586 88.1406 54.7587 88.1406 54.9387C88.1406 55.1188 88.0633 55.2915 87.9257 55.4188C87.7881 55.5461 87.6015 55.6177 87.4069 55.6177C87.2123 55.6177 87.0256 55.5461 86.888 55.4188ZM84.6 56.8574C84.6 56.6774 84.6773 56.5048 84.8148 56.3776C84.9524 56.2503 85.1389 56.1788 85.3334 56.1788H85.3407C85.5352 56.1788 85.7217 56.2503 85.8593 56.3776C85.9968 56.5048 86.074 56.6774 86.074 56.8574C86.074 57.0374 85.9968 57.21 85.8593 57.3372C85.7217 57.4645 85.5352 57.536 85.3407 57.536H85.3334C85.1389 57.536 84.9524 57.4645 84.8148 57.3372C84.6773 57.21 84.6 57.0374 84.6 56.8574Z" fill="#16697A"/>
</g>
<defs>
<clipPath id="clip0">
<rect width="14.6667" height="13.5714" fill="white" transform="translate(78 46)"/>
</clipPath>
</defs>
</svg>
